<svg id="Capa_1" data-name="Capa 1" xmlns="http://www.w3.org/2000/svg" viewBox="0 0 1521.2 511.97">
  <defs>
    <style>
      .cls-1 {
        fill: #368b4c;
      }

      .cls-2 {
        fill: #3fa45a;
      }

      .cls-3, .cls-8 {
        fill: #4cba68;
      }

      .cls-4 {
        fill: #64c37d;
      }

      .cls-5 {
        fill: #c70024;
      }

      .cls-6 {
        fill: #ff0c38;
      }

      .cls-7, .cls-8 {
        isolation: isolate;
      }

      .cls-8 {
        font-size: 150px;
        font-family: Montserrat-SemiBold, Montserrat;
        font-weight: 600;
      }

      .cls-9 {
        letter-spacing: -0.03em;
      }
    </style>
  </defs>
  <title>logo</title>
  <path class="cls-1" d="M259,146.24a173,173,0,0,1-18.75,4.95,115.83,115.83,0,0,1-6.06-22.8c-5.2-30.8-3.62-85.88,60.62-121q5.76-3.15,12.2-6.08A14.4,14.4,0,0,1,326,8.5a14.74,14.74,0,0,1,1,2.95c.82,3.92,1.64,8.42,2.31,13.35C334.18,61.74,330.3,122.76,259,146.24Z" transform="translate(0 -0.03)"/>
  <path class="cls-2" d="M234.15,128.39c-5.2-30.79-3.62-85.88,60.62-121,.16,1,.3,2,.44,3C300,45.63,296.59,102.87,234.15,128.39Z" transform="translate(0 -0.03)"/>
  <g>
    <path class="cls-1" d="M198.56,178.32a7.71,7.71,0,0,1-6.3-3.23l-74.44-104a7.74,7.74,0,0,1,12.58-9l74.44,104a7.73,7.73,0,0,1-6.28,12.23Z" transform="translate(0 -0.03)"/>
    <path class="cls-1" d="M167.29,203.38C115.39,291.77,38.45,259.1,7,240.38a14.38,14.38,0,0,1-5-19.71,14.8,14.8,0,0,1,1.85-2.46,175.3,175.3,0,0,1,15.8-14.91c63.46-52.57,123.82-17.34,142-4.25C165.33,201.66,167.29,203.38,167.29,203.38Z" transform="translate(0 -0.03)"/>
  </g>
  <path class="cls-2" d="M161.72,199.06c-49.66,50.49-111,23.83-138.18,7.62a14,14,0,0,1-3.87-3.37C83.13,150.73,143.5,186,161.72,199.06Z" transform="translate(0 -0.03)"/>
  <path class="cls-3" d="M206.17,183.43C121.35,241,65.87,178.44,45.53,148a14.39,14.39,0,0,1,4-19.95,14.66,14.66,0,0,1,2.72-1.42,172.61,172.61,0,0,1,18.66-6.16c70.54-18.86,110,22.81,126.27,47.07A108.74,108.74,0,0,1,206.17,183.43Z" transform="translate(0 -0.03)"/>
  <path class="cls-4" d="M197.14,167.58c-63.52,24.16-106.67-19.76-126.27-47.07C141.41,101.65,180.83,143.32,197.14,167.58Z" transform="translate(0 -0.03)"/>
  <path class="cls-3" d="M209.36,181.61c81.63-62,40.07-134.54,17.76-163.53a14.39,14.39,0,0,0-20.18-2.61,14.23,14.23,0,0,0-2.21,2.11A171.54,171.54,0,0,0,193,33.3c-40.4,60.83-13.5,111.49,4.29,134.69A108.76,108.76,0,0,0,209.36,181.61Z" transform="translate(0 -0.03)"/>
  <path class="cls-4" d="M197.23,168C240.41,115.51,212.56,60.6,193,33.3,152.54,94.13,179.44,144.79,197.23,168Z" transform="translate(0 -0.03)"/>
  <path class="cls-5" d="M450.1,464.58a71.61,71.61,0,0,1-3.93,8.87,72.34,72.34,0,0,1-69.84,38.31C264.16,502.63,162.85,431,162.85,431c-80.74-53.57-90.76-169.9-19.08-221.21l2.45-1.74,52.33-37.47,54.78-39.2C325,80.08,432.09,127,456.57,220.79,485.48,331.44,467.86,416,450.1,464.58Z" transform="translate(0 -0.03)"/>
  <path class="cls-6" d="M450.1,464.58a71.61,71.61,0,0,1-3.93,8.87,72.23,72.23,0,0,1-39.66,8.14C294.34,472.46,193,400.84,193,400.84c-68.08-45.18-85.88-135-46.8-192.79l52.33-37.47,54.78-39.2C325,80.08,432.09,127,456.57,220.79,485.48,331.44,467.86,416,450.1,464.58Z" transform="translate(0 -0.03)"/>
  <ellipse cx="163.31" cy="334" rx="9.3" ry="16.74" transform="translate(-163.88 157.4) rotate(-35.59)"/>
  <ellipse cx="197.33" cy="248.57" rx="9.3" ry="16.74" transform="translate(-107.8 161.24) rotate(-35.59)"/>
  <ellipse cx="280.96" cy="303.45" rx="9.3" ry="16.74" transform="translate(-124.12 220.16) rotate(-35.59)"/>
  <ellipse cx="400.11" cy="176.56" rx="9.3" ry="16.74" transform="translate(-28.01 265.81) rotate(-35.59)"/>
  <ellipse cx="374.89" cy="279.99" rx="9.3" ry="16.74" transform="translate(-92.92 270.45) rotate(-35.59)"/>
  <ellipse cx="427.26" cy="367.22" rx="9.3" ry="16.74" transform="translate(-133.9 317.22) rotate(-35.59)"/>
  <ellipse cx="312.53" cy="413.77" rx="9.3" ry="16.74" transform="translate(-182.43 259.15) rotate(-35.59)"/>
  <ellipse cx="393.11" cy="456.91" rx="9.3" ry="16.74" transform="translate(-192.48 314.1) rotate(-35.59)"/>
  <ellipse cx="300.49" cy="189.78" rx="9.3" ry="16.74" transform="translate(-54.32 210.3) rotate(-35.59)"/>
  <ellipse cx="206.61" cy="414.66" rx="9.3" ry="16.74" transform="translate(-202.73 197.67) rotate(-35.59)"/>
  <g class="cls-7">
    <text class="cls-8" transform="translate(600.96 223.27)">ЗДОРОВОЕ<tspan x="0" y="208">ПИ</tspan><tspan class="cls-9" x="245.85" y="208">Т</tspan><tspan x="333.6" y="208">АНИЕ</tspan></text>
  </g>
</svg>
