<svg id="Capa_1" data-name="Capa 1" xmlns="http://www.w3.org/2000/svg" viewBox="0 0 1460.96 512">
  <defs>
    <style>
      .cls-1 {
        fill: #368b4c;
      }

      .cls-2 {
        fill: #3fa45a;
      }

      .cls-3, .cls-7 {
        fill: #4cba68;
      }

      .cls-4 {
        fill: #64c37d;
      }

      .cls-5 {
        fill: #c70024;
      }

      .cls-6 {
        fill: #ff0c38;
      }

      .cls-7 {
        font-size: 150px;
        font-family: Montserrat-SemiBold, Montserrat;
        font-weight: 600;
      }
    </style>
  </defs>
  <title>logo</title>
  <path class="cls-1" d="M262,146.24a172.19,172.19,0,0,1-18.75,4.95,116,116,0,0,1-6.06-22.8c-5.2-30.8-3.62-85.88,60.62-121q5.76-3.15,12.2-6.08a14.39,14.39,0,0,1,20,10.14c.82,3.92,1.64,8.42,2.31,13.35C337.22,61.74,333.34,122.76,262,146.24Z" transform="translate(-3.04 0)"/>
  <path class="cls-2" d="M237.19,128.39c-5.2-30.79-3.62-85.88,60.62-121,.16,1,.3,2,.44,3C303,45.63,299.63,102.87,237.19,128.39Z" transform="translate(-3.04 0)"/>
  <g>
    <path class="cls-1" d="M201.6,178.32a7.72,7.72,0,0,1-6.3-3.23l-74.44-104a7.74,7.74,0,0,1,12.58-9l74.44,104a7.73,7.73,0,0,1-6.28,12.23Z" transform="translate(-3.04 0)"/>
    <path class="cls-1" d="M170.33,203.38c-51.9,88.39-128.84,55.72-160.26,37a14.38,14.38,0,0,1-3.16-22.17,175.62,175.62,0,0,1,15.8-14.91c63.46-52.57,123.82-17.34,142-4.25C168.37,201.66,170.33,203.38,170.33,203.38Z" transform="translate(-3.04 0)"/>
  </g>
  <path class="cls-2" d="M164.76,199.06c-49.66,50.49-111,23.83-138.18,7.62a14.07,14.07,0,0,1-3.87-3.37C86.17,150.73,146.54,186,164.76,199.06Z" transform="translate(-3.04 0)"/>
  <path class="cls-3" d="M209.21,183.43C124.39,241,68.91,178.44,48.57,148a14.38,14.38,0,0,1,6.68-21.37,172.74,172.74,0,0,1,18.66-6.16c70.54-18.86,110,22.81,126.27,47.07A108.06,108.06,0,0,1,209.21,183.43Z" transform="translate(-3.04 0)"/>
  <path class="cls-4" d="M200.18,167.58c-63.52,24.16-106.67-19.76-126.27-47.07C144.45,101.65,183.87,143.32,200.18,167.58Z" transform="translate(-3.04 0)"/>
  <path class="cls-3" d="M212.4,181.61c81.63-62,40.07-134.54,17.76-163.53a14.39,14.39,0,0,0-22.39-.5A173.93,173.93,0,0,0,196,33.3c-40.4,60.83-13.5,111.49,4.29,134.69A108.39,108.39,0,0,0,212.4,181.61Z" transform="translate(-3.04 0)"/>
  <path class="cls-4" d="M200.27,168C243.45,115.51,215.6,60.6,196,33.3,155.58,94.13,182.48,144.79,200.27,168Z" transform="translate(-3.04 0)"/>
  <path class="cls-5" d="M453.14,464.58a70.64,70.64,0,0,1-3.93,8.87,72.36,72.36,0,0,1-69.84,38.31C267.2,502.63,165.89,431,165.89,431,85.15,377.43,75.13,261.1,146.81,209.79l2.45-1.74,52.33-37.47,54.78-39.2c71.69-51.3,178.76-4.34,203.24,89.41C488.52,331.44,470.9,416,453.14,464.58Z" transform="translate(-3.04 0)"/>
  <path class="cls-6" d="M453.14,464.58a70.64,70.64,0,0,1-3.93,8.87,72.28,72.28,0,0,1-39.66,8.14c-112.17-9.13-213.49-80.75-213.49-80.75-68.08-45.18-85.88-135-46.8-192.79l52.33-37.47,54.78-39.2c71.69-51.3,178.76-4.34,203.24,89.41C488.52,331.44,470.9,416,453.14,464.58Z" transform="translate(-3.04 0)"/>
  <ellipse cx="166.35" cy="333.99" rx="9.3" ry="16.74" transform="translate(-166.34 159.21) rotate(-35.59)"/>
  <ellipse cx="200.38" cy="248.57" rx="9.3" ry="16.74" transform="translate(-110.28 163.05) rotate(-35.59)"/>
  <ellipse cx="284" cy="303.44" rx="9.3" ry="16.74" transform="translate(-126.59 221.97) rotate(-35.59)"/>
  <ellipse cx="403.15" cy="176.55" rx="9.3" ry="16.74" transform="translate(-30.48 267.61) rotate(-35.59)"/>
  <ellipse cx="377.93" cy="279.98" rx="9.3" ry="16.74" transform="translate(-95.39 272.26) rotate(-35.59)"/>
  <ellipse cx="430.31" cy="367.22" rx="9.3" ry="16.74" transform="translate(-136.38 319.03) rotate(-35.59)"/>
  <ellipse cx="315.58" cy="413.76" rx="9.3" ry="16.74" transform="translate(-184.9 260.96) rotate(-35.59)"/>
  <ellipse cx="396.16" cy="456.91" rx="9.3" ry="16.74" transform="translate(-194.96 315.91) rotate(-35.59)"/>
  <ellipse cx="303.54" cy="189.77" rx="9.3" ry="16.74" transform="translate(-56.79 212.11) rotate(-35.59)"/>
  <ellipse cx="209.66" cy="414.66" rx="9.3" ry="16.74" transform="translate(-205.21 199.48) rotate(-35.59)"/>
  <text class="cls-7" transform="translate(664.96 220.3)">Здоровое<tspan x="0" y="180">питание</tspan></text>
</svg>
